# Blender 5.1.0
# www.blender.org
mtllib Untitled10.mtl
o Cube.001
v -2.211348 1.547947 -1.493598
v -2.287952 1.483668 -1.493598
v -2.211348 1.547947 1.497985
v -2.287952 1.483668 1.497985
v -0.925773 0.015858 -1.493598
v -1.002377 -0.048421 -1.493598
v -0.925773 0.015858 1.497985
v -1.002377 -0.048421 1.497985
v 1.000000 -0.050000 -1.500000
v 1.000000 0.050000 -1.500000
v 1.000000 -0.050000 1.500000
v 1.000000 0.050000 1.500000
v -1.000000 -0.050000 -1.500000
v -1.000000 0.050000 -1.500000
v -1.000000 -0.050000 1.500000
v -1.000000 0.050000 1.500000
vn 0.7660 0.6428 -0.0000
vn -0.0000 -0.0000 1.0000
vn 0.6428 -0.7660 -0.0000
vn -0.7660 -0.6428 -0.0000
vn -0.6428 0.7660 -0.0000
vn -0.0000 -0.0000 -1.0000
vn -0.0000 -1.0000 -0.0000
vn -1.0000 -0.0000 -0.0000
vn -0.0000 1.0000 -0.0000
vn 1.0000 -0.0000 -0.0000
vt 0.002861 0.996206
vt 0.002861 0.503333
vt 0.997139 0.503333
vt 0.997139 0.996206
vt 0.699991 0.335024
vt 0.767558 0.335024
vt 0.767558 0.402591
vt 0.699991 0.402591
vt 0.699991 0.132321
vt 0.767558 0.132321
vt 0.767558 0.199888
vt 0.699991 0.199888
vt 0.506323 0.462917
vt 0.916932 0.462917
vt 0.916932 0.052308
vt 0.506323 0.052308
vt 0.699991 0.267456
vt 0.767558 0.267456
vt 0.910859 0.448304
vt 0.910859 0.074304
vt 0.509934 0.074304
vt 0.509934 0.448304
vt 0.996674 0.007822
vt 0.923927 0.003452
vt 0.922477 0.485398
vt 0.995225 0.489768
vt 0.661669 0.365921
vt 0.586870 0.365921
vt 0.586870 0.324071
vt 0.661669 0.324071
vt 0.004484 0.499575
vt 0.004484 0.000886
vt 0.505820 0.000885
vt 0.505820 0.499575
vt 0.661669 0.282221
vt 0.586870 0.282221
vt 0.586650 0.240494
vt 0.661889 0.240494
s 0
usemtl Material.001
f 1/1/1 3/4/1 7/3/1 5/2/1
f 4/5/2 8/8/2 7/7/2 3/6/2
f 8/9/3 6/12/3 5/11/3 7/10/3
f 6/13/4 8/16/4 4/15/4 2/14/4
f 2/17/5 4/5/5 3/6/5 1/18/5
f 6/12/6 2/17/6 1/18/6 5/11/6
f 9/19/7 11/22/7 15/21/7 13/20/7
f 12/23/2 16/26/2 15/25/2 11/24/2
f 16/27/8 14/30/8 13/29/8 15/28/8
f 14/31/9 16/34/9 12/33/9 10/32/9
f 10/35/10 12/38/10 11/37/10 9/36/10
f 14/30/6 10/35/6 9/36/6 13/29/6
